# xmcd CD database file generated by Grip 2.96
# 
# Track frame offsets:
#       150
#       18825
#       34135
#       60835
#       74100
#       99075
#       147531
#       162900
#       180375
#       219825
#       255075
#       279522
#       296100
# 
# Disc length: 4217 seconds
# 
# Revision: 0
# Processed by: cddbd v1.4PL0 Copyright (c) Steve Scherf et al.
# Submitted via: Grip 2.96
# 
DISCID=b110770d
DTITLE=Somebody Wrong Bluesband - Just Live
DYEAR=1900
DGENRE=
TTITLE0=One Way Out
TTITLE1=Tore Down
TTITLE2=Dangerous Mood
TTITLE3=High Heel Sneakers
TTITLE4=The Way You Do The Things You Do
TTITLE5=How Blue Can You Get
TTITLE6=To Be Alone With You
TTITLE7=Ain't Nobody Here But Us Chickens
TTITLE8=Deal
TTITLE9=Oh Well
TTITLE10=Love Me With A Feeling
TTITLE11=Johnny Guitar
TTITLE12=Willing
EXTD=
EXTT0=
EXTT1=
EXTT2=
EXTT3=
EXTT4=
EXTT5=
EXTT6=
EXTT7=
EXTT8=
EXTT9=
EXTT10=
EXTT11=
EXTT12=
PLAYORDER=
